<svg version="1.2" width="222mm" height="595.293" viewBox="-37.518 -190.476 22237.518 15940.488" preserveAspectRatio="xMidYMid" fill-rule="evenodd" stroke-width="28.222" stroke-linejoin="round" xmlns="http://www.w3.org/2000/svg" xml:space="preserve"><defs class="ClipPathGroup"><clipPath id="a" clipPathUnits="userSpaceOnUse"><path d="M0 0h22200v15750.012H0z"/></clipPath></defs><g class="Master_Slide"><g class="Background"/><g class="BackgroundObjects"/></g><g class="SlideGroup"><g class="Slide" clip-path="url(#a)"><g class="Page"><g stroke-width=".014" class="com.sun.star.drawing.ClosedBezierShape"><path class="BoundingBox" fill="none" d="M2998.554 1124.985h16879.548v12258.063H2998.554z"/><path fill="#00cfc8" d="M10618.482 5422.461 9395.928 7337.988c742.479 -205.461 1457.985 -352.536 2166.054 -433.455zM9050.94 7881l-352.536 549.006c778.554 -322.455 1621.488 -601.509 2500.497 -799.533 724.497 -160.506 1477.521 -263.958 2228.991 -315.018a7770 7770 0 0 1 589.521 -22.533l-26.973 -50.949 -616.494 -22.533c-535.464 -5.994 -1078.476 22.533 -1603.506 81.03 -934.509 103.452 -1840.491 301.476 -2719.5 580.53m-778.554 1223.997 -607.503 961.482c1358.973 -946.497 2971.47 -1621.488 4639.467 -1987.455 661.449 -146.964 1323.009 -250.527 2011.542 -301.476l-44.955 -73.482h-235.542c-625.485 14.985 -1241.979 73.482 -1858.473 169.497 -1422.021 226.551 -2763.012 667.554 -3904.536 1231.545m-1358.973 2134.53 -1360.527 2141.967H3224.883c-81.03 0 -154.512 -29.97 -199.467 -88.467 -26.973 -58.497 -35.964 -124.542 -8.991 -183.039L10409.913 1227.105c37.518 -66.045 118.548 -102.009 208.458 -102.009 91.464 0 163.503 35.964 208.458 102.009l3488.952 5626.479c53.946 7.548 100.455 7.548 154.512 14.985 2038.515 198.024 3823.506 865.467 5237.979 1731.045l63.048 43.512c108.003 66.045 134.976 183.039 63.048 271.506s-217.449 116.994 -334.554 66.045l-73.482 -28.527c-1287.045 -565.545 -2772.003 -814.518 -4294.479 -793.539l3081.027 4951.488c35.964 58.497 35.964 124.542 -8.991 183.039s-118.548 88.467 -199.467 88.467h-2329.446l-3134.973 -4929.066c-2101.452 454.545 -4114.548 1408.479 -5626.479 2786.988m5182.479 -4393.491c154.512 -7.548 298.479 -22.533 444 -28.527L10591.509 3677.985l-5772 9285.039h417.027l5228.988 -8214c26.973 -52.503 90.021 -73.482 152.958 -73.482 64.491 0 118.548 20.979 145.521 73.482zm1006.548 -43.512c208.458 0 417.027 7.548 615.051 14.985l-3099.12 -5002.548 -6931.506 11147.952h562.548l6198.018 -9967.467c26.973 -43.512 81.03 -73.482 143.967 -73.482 64.491 0 118.548 29.97 154.512 73.482zm1466.976 1370.961c-199.467 14.985 -388.5 29.97 -578.976 50.949l2944.497 4738.479h616.494zm-1114.551 116.994c-134.976 14.985 -262.515 37.518 -399.045 60.051l2936.949 4612.494h370.518z"/></g></g></g></g></svg>